<svg width="24" height="10" viewBox="0 0 24 10" fill="none" xmlns="http://www.w3.org/2000/svg">
<path d="M4.65258 1.49899C4.91915 1.16556 5.10005 0.717868 5.05234 0.260376C4.66211 0.27978 4.18591 0.517824 3.91022 0.851514C3.66267 1.13727 3.44357 1.60371 3.50069 2.04202C3.93874 2.08002 4.37639 1.82307 4.65258 1.49899Z" fill="#000008"/>
<path d="M5.04738 2.12761C4.41122 2.08972 3.87033 2.48866 3.56654 2.48866C3.26257 2.48866 2.79736 2.14671 2.29419 2.15592C1.63929 2.16554 1.03161 2.53583 0.699278 3.12476C0.015721 4.30291 0.518888 6.05053 1.18361 7.01007C1.50642 7.48478 1.89545 8.00748 2.40806 7.9887C2.8924 7.9697 3.08223 7.67509 3.67096 7.67509C4.25926 7.67509 4.43026 7.9887 4.94296 7.9792C5.47463 7.96969 5.80703 7.50425 6.12983 7.02907C6.50015 6.48792 6.65174 5.9654 6.66128 5.93671C6.65174 5.92721 5.63605 5.53757 5.62663 4.36921C5.61704 3.39092 6.42406 2.9256 6.46204 2.89674C6.00631 2.22271 5.29424 2.14671 5.04738 2.12761Z" fill="#000008"/>
<path d="M10.5865 0.803661C11.9692 0.803661 12.932 1.75675 12.932 3.14439C12.932 4.53697 11.9494 5.49502 10.5519 5.49502H9.02096V7.92957H7.9149V0.803659L10.5865 0.803661ZM9.02096 4.5666H10.2901C11.2531 4.5666 11.8012 4.04814 11.8012 3.14934C11.8012 2.25063 11.2531 1.73704 10.2951 1.73704H9.02096V4.5666Z" fill="#000008"/>
<path d="M13.221 6.45305C13.221 5.54434 13.9173 4.98636 15.1519 4.9172L16.574 4.83329V4.43332C16.574 3.85552 16.1839 3.50985 15.5322 3.50985C14.9148 3.50985 14.5296 3.80609 14.4358 4.27035H13.4284C13.4877 3.33202 14.2876 2.64068 15.5716 2.64068C16.8308 2.64068 17.6357 3.30735 17.6357 4.34931V7.92955H16.6135V7.07524H16.5889C16.2877 7.65304 15.6309 8.01842 14.9494 8.01842C13.9321 8.01842 13.221 7.38633 13.221 6.45305ZM16.574 5.98393V5.57406L15.295 5.65303C14.658 5.69751 14.2975 5.97898 14.2975 6.42343C14.2975 6.87768 14.6728 7.17401 15.2457 7.17401C15.9913 7.17401 16.574 6.66041 16.574 5.98393Z" fill="#000008"/>
<path d="M18.6008 9.84069V8.97647C18.6797 8.99619 18.8574 8.99619 18.9464 8.99619C19.4402 8.99619 19.7069 8.78882 19.8698 8.25551C19.8698 8.2456 19.9637 7.93946 19.9637 7.93451L18.0872 2.7345H19.2426L20.5563 6.96169H20.576L21.8897 2.7345H23.0156L21.0697 8.20112C20.6255 9.46045 20.1119 9.86536 19.0354 9.86536C18.9464 9.86536 18.6797 9.85545 18.6008 9.84069Z" fill="#000008"/>
</svg>
