<svg width="24" height="25" viewBox="0 0 24 25" fill="none" xmlns="http://www.w3.org/2000/svg">
<path d="M19.5459 18.454C19.7573 18.6654 19.876 18.952 19.876 19.2509C19.876 19.5498 19.7573 19.8364 19.5459 20.0478C19.3346 20.2591 19.0479 20.3779 18.7491 20.3779C18.4502 20.3779 18.1635 20.2591 17.9522 20.0478L12 14.0937L6.04593 20.0459C5.83458 20.2573 5.54794 20.376 5.24905 20.376C4.95017 20.376 4.66352 20.2573 4.45218 20.0459C4.24083 19.8346 4.1221 19.5479 4.1221 19.249C4.1221 18.9502 4.24083 18.6635 4.45218 18.4522L10.4062 12.5L4.45405 6.54592C4.24271 6.33457 4.12398 6.04793 4.12398 5.74904C4.12398 5.45016 4.24271 5.16351 4.45405 4.95217C4.6654 4.74082 4.95204 4.62209 5.25093 4.62209C5.54981 4.62209 5.83646 4.74082 6.0478 4.95217L12 10.9062L17.9541 4.95123C18.1654 4.73989 18.452 4.62115 18.7509 4.62115C19.0498 4.62115 19.3365 4.73989 19.5478 4.95123C19.7591 5.16258 19.8779 5.44922 19.8779 5.74811C19.8779 6.04699 19.7591 6.33364 19.5478 6.54498L13.5937 12.5L19.5459 18.454Z" fill="black" fill-opacity="0.4"/>
</svg>
