<svg width="26" height="11" viewBox="0 0 26 11" fill="none" xmlns="http://www.w3.org/2000/svg">
<path d="M12.0816 7.9558H11.1829V0.962717H13.5654C14.1692 0.962717 14.6841 1.16399 15.1054 1.56654C15.536 1.96909 15.7513 2.46057 15.7513 3.04098C15.7513 3.63544 15.536 4.12692 15.1054 4.52479C14.6888 4.92266 14.1739 5.11925 13.5654 5.11925H12.0816V7.9558ZM12.0816 1.82398V4.26267H13.5841C13.9399 4.26267 14.2395 4.14097 14.4735 3.90225C14.7122 3.66353 14.8339 3.37332 14.8339 3.04566C14.8339 2.72269 14.7122 2.43716 14.4735 2.19844C14.2395 1.95036 13.9446 1.82866 13.5841 1.82866H12.0816V1.82398Z" fill="#3C4043"/>
<path d="M18.101 3.0129C18.7657 3.0129 19.2899 3.19077 19.6737 3.54651C20.0575 3.90225 20.2495 4.38905 20.2495 5.00691V7.9558H19.3929V7.29113H19.3554C18.9856 7.83878 18.4895 8.11027 17.8716 8.11027C17.3427 8.11027 16.9027 7.9558 16.547 7.64219C16.1912 7.32858 16.0134 6.94007 16.0134 6.47199C16.0134 5.97583 16.2006 5.58264 16.5751 5.29244C16.9495 4.99755 17.4504 4.85244 18.0729 4.85244C18.6065 4.85244 19.0465 4.95074 19.3882 5.14733V4.94138C19.3882 4.62777 19.2665 4.36564 19.0184 4.14565C18.7703 3.92565 18.4801 3.81799 18.1478 3.81799C17.647 3.81799 17.2491 4.02863 16.9589 4.45458L16.1678 3.95841C16.6031 3.32651 17.2491 3.0129 18.101 3.0129ZM16.9402 6.48603C16.9402 6.72007 17.0385 6.91667 17.2397 7.07113C17.4363 7.2256 17.6704 7.30517 17.9372 7.30517C18.3163 7.30517 18.6533 7.16475 18.9482 6.8839C19.2431 6.60305 19.3929 6.2754 19.3929 5.89626C19.112 5.67626 18.7235 5.56392 18.2227 5.56392C17.8576 5.56392 17.5533 5.65286 17.3099 5.82605C17.0619 6.0086 16.9402 6.22859 16.9402 6.48603Z" fill="#3C4043"/>
<path d="M25.1362 3.16741L22.1405 10.0575H21.2137L22.3278 7.64691L20.3525 3.16741H21.3308L22.7537 6.6031H22.7724L24.1579 3.16741H25.1362Z" fill="#3C4043"/>
<path d="M8.50687 4.55288C8.50687 4.25986 8.48066 3.97948 8.43198 3.70987H4.66491V5.25453L6.83444 5.25499C6.74644 5.76894 6.46325 6.20706 6.02935 6.49915V7.5013H7.32077C8.07484 6.8034 8.50687 5.77175 8.50687 4.55288Z" fill="#4285F4"/>
<path d="M6.02981 6.49919C5.67032 6.74166 5.2074 6.88348 4.66583 6.88348C3.61969 6.88348 2.73221 6.17856 2.41439 5.22836H1.08225V6.26188C1.74223 7.57156 3.09872 8.47027 4.66583 8.47027C5.74896 8.47027 6.6589 8.11406 7.32123 7.50088L6.02981 6.49919Z" fill="#34A853"/>
<path d="M2.28891 4.46159C2.28891 4.19479 2.33337 3.93688 2.41435 3.69441V2.6609H1.08221C0.80932 3.20246 0.655792 3.81377 0.655792 4.46159C0.655792 5.10941 0.809788 5.72072 1.08221 6.26229L2.41435 5.22877C2.33337 4.98631 2.28891 4.7284 2.28891 4.46159Z" fill="#FABB05"/>
<path d="M4.66583 2.0393C5.25701 2.0393 5.78641 2.24291 6.2044 2.64078L7.34884 1.49726C6.65375 0.849913 5.74756 0.452515 4.66583 0.452515C3.09919 0.452515 1.74219 1.35122 1.08221 2.6609L2.41435 3.69441C2.73217 2.74422 3.61969 2.0393 4.66583 2.0393Z" fill="#E94235"/>
</svg>
