<svg width="56" height="43" viewBox="0 0 56 43" fill="none" xmlns="http://www.w3.org/2000/svg">
<g filter="url(#filter0_dd_0_95)">
<rect x="7.9718" y="5" width="39.9568" height="25.7414" rx="4.6104" fill="white"/>
<rect x="7.87575" y="4.90395" width="40.1489" height="25.9335" rx="4.70645" stroke="#D6DCE5" stroke-width="0.1921"/>
<path d="M27.0816 20.9558H26.1829V13.9627H28.5654C29.1692 13.9627 29.6841 14.164 30.1054 14.5665C30.536 14.9691 30.7513 15.4606 30.7513 16.041C30.7513 16.6354 30.536 17.1269 30.1054 17.5248C29.6888 17.9227 29.1739 18.1192 28.5654 18.1192H27.0816V20.9558ZM27.0816 14.824V17.2627H28.5841C28.9399 17.2627 29.2395 17.141 29.4735 16.9022C29.7122 16.6635 29.8339 16.3733 29.8339 16.0457C29.8339 15.7227 29.7122 15.4372 29.4735 15.1984C29.2395 14.9504 28.9446 14.8287 28.5841 14.8287H27.0816V14.824Z" fill="#3C4043"/>
<path d="M33.101 16.0129C33.7657 16.0129 34.2899 16.1908 34.6737 16.5465C35.0575 16.9022 35.2495 17.389 35.2495 18.0069V20.9558H34.3929V20.2911H34.3554C33.9856 20.8388 33.4895 21.1103 32.8716 21.1103C32.3427 21.1103 31.9027 20.9558 31.547 20.6422C31.1912 20.3286 31.0134 19.9401 31.0134 19.472C31.0134 18.9758 31.2006 18.5826 31.5751 18.2924C31.9495 17.9975 32.4504 17.8524 33.0729 17.8524C33.6065 17.8524 34.0465 17.9507 34.3882 18.1473V17.9414C34.3882 17.6278 34.2665 17.3656 34.0184 17.1456C33.7703 16.9256 33.4801 16.818 33.1478 16.818C32.647 16.818 32.2491 17.0286 31.9589 17.4546L31.1678 16.9584C31.6031 16.3265 32.2491 16.0129 33.101 16.0129ZM31.9402 19.486C31.9402 19.7201 32.0385 19.9167 32.2397 20.0711C32.4363 20.2256 32.6704 20.3052 32.9372 20.3052C33.3163 20.3052 33.6533 20.1647 33.9482 19.8839C34.2431 19.6031 34.3929 19.2754 34.3929 18.8963C34.112 18.6763 33.7235 18.5639 33.2227 18.5639C32.8576 18.5639 32.5533 18.6529 32.3099 18.826C32.0619 19.0086 31.9402 19.2286 31.9402 19.486Z" fill="#3C4043"/>
<path d="M40.1362 16.1674L37.1405 23.0575H36.2137L37.3278 20.6469L35.3525 16.1674H36.3308L37.7537 19.6031H37.7724L39.1579 16.1674H40.1362Z" fill="#3C4043"/>
<path d="M23.5069 17.5529C23.5069 17.2599 23.4807 16.9795 23.432 16.7099H19.6649V18.2545L21.8344 18.255C21.7464 18.7689 21.4633 19.2071 21.0293 19.4991V20.5013H22.3208C23.0748 19.8034 23.5069 18.7718 23.5069 17.5529Z" fill="#4285F4"/>
<path d="M21.0298 19.4992C20.6703 19.7417 20.2074 19.8835 19.6658 19.8835C18.6197 19.8835 17.7322 19.1786 17.4144 18.2284H16.0822V19.2619C16.7422 20.5716 18.0987 21.4703 19.6658 21.4703C20.749 21.4703 21.6589 21.1141 22.3212 20.5009L21.0298 19.4992Z" fill="#34A853"/>
<path d="M17.2889 17.4616C17.2889 17.1948 17.3334 16.9369 17.4144 16.6944V15.6609H16.0822C15.8093 16.2025 15.6558 16.8138 15.6558 17.4616C15.6558 18.1094 15.8098 18.7207 16.0822 19.2623L17.4144 18.2288C17.3334 17.9863 17.2889 17.7284 17.2889 17.4616Z" fill="#FABB05"/>
<path d="M19.6658 15.0393C20.257 15.0393 20.7864 15.2429 21.2044 15.6408L22.3488 14.4973C21.6538 13.8499 20.7476 13.4525 19.6658 13.4525C18.0992 13.4525 16.7422 14.3512 16.0822 15.6609L17.4144 16.6944C17.7322 15.7442 18.6197 15.0393 19.6658 15.0393Z" fill="#E94235"/>
</g>
<defs>
<filter id="filter0_dd_0_95" x="0.0956936" y="0.965861" width="55.709" height="41.4936" filterUnits="userSpaceOnUse" color-interpolation-filters="sRGB">
<feFlood flood-opacity="0" result="BackgroundImageFix"/>
<feColorMatrix in="SourceAlpha" type="matrix" values="0 0 0 0 0 0 0 0 0 0 0 0 0 0 0 0 0 0 127 0" result="hardAlpha"/>
<feOffset dy="0.3842"/>
<feGaussianBlur stdDeviation="1.921"/>
<feColorMatrix type="matrix" values="0 0 0 0 0.717647 0 0 0 0 0.717647 0 0 0 0 0.717647 0 0 0 0.08 0"/>
<feBlend mode="normal" in2="BackgroundImageFix" result="effect1_dropShadow_0_95"/>
<feColorMatrix in="SourceAlpha" type="matrix" values="0 0 0 0 0 0 0 0 0 0 0 0 0 0 0 0 0 0 127 0" result="hardAlpha"/>
<feOffset dy="3.842"/>
<feGaussianBlur stdDeviation="3.842"/>
<feColorMatrix type="matrix" values="0 0 0 0 0.717647 0 0 0 0 0.717647 0 0 0 0 0.717647 0 0 0 0.08 0"/>
<feBlend mode="normal" in2="effect1_dropShadow_0_95" result="effect2_dropShadow_0_95"/>
<feBlend mode="normal" in="SourceGraphic" in2="effect2_dropShadow_0_95" result="shape"/>
</filter>
</defs>
</svg>
