<svg width="23" height="14" viewBox="0 0 23 14" fill="none" xmlns="http://www.w3.org/2000/svg">
<path d="M14.0916 1.58459H8.20854V12.1566H14.0916V1.58459Z" fill="#FF5F00"/>
<path d="M8.58212 6.87059C8.58119 5.85243 8.81191 4.8474 9.25682 3.93159C9.70172 3.01578 10.3492 2.21319 11.1501 1.58458C10.1582 0.804961 8.96705 0.320128 7.71268 0.185494C6.45831 0.0508615 5.19136 0.271857 4.05665 0.823232C2.92194 1.37461 1.96525 2.23411 1.29593 3.3035C0.626608 4.37289 0.271667 5.60902 0.271667 6.87059C0.271667 8.13217 0.626608 9.3683 1.29593 10.4377C1.96525 11.5071 2.92194 12.3666 4.05665 12.918C5.19136 13.4693 6.45831 13.6903 7.71268 13.5557C8.96705 13.4211 10.1582 12.9362 11.1501 12.1566C10.3492 11.528 9.70174 10.7254 9.25683 9.80959C8.81192 8.89378 8.58119 7.88876 8.58212 6.87059Z" fill="#EB001B"/>
<path d="M22.0282 6.87059C22.0282 8.13215 21.6733 9.36828 21.0041 10.4377C20.3348 11.5071 19.3781 12.3666 18.2434 12.9179C17.1087 13.4693 15.8418 13.6903 14.5874 13.5557C13.3331 13.4211 12.1419 12.9362 11.1501 12.1566C11.9503 11.5274 12.5973 10.7246 13.0421 9.80898C13.4869 8.89331 13.7181 7.88859 13.7181 6.87059C13.7181 5.85259 13.4869 4.84788 13.0421 3.93221C12.5973 3.01654 11.9503 2.21382 11.1501 1.58458C12.1419 0.80496 13.3331 0.320124 14.5874 0.185493C15.8418 0.0508614 17.1087 0.271867 18.2434 0.823247C19.3781 1.37463 20.3348 2.23413 21.0041 3.30352C21.6733 4.37291 22.0282 5.60903 22.0282 6.87059Z" fill="#F79E1B"/>
<path d="M21.3867 11.0369V10.8204H21.474V10.7763H21.2517V10.8204H21.3391V11.0369H21.3867ZM21.8183 11.0369V10.7759H21.7501L21.6718 10.9554L21.5934 10.7759H21.5252V11.0369H21.5733V10.84L21.6468 11.0097H21.6967L21.7702 10.8396V11.0369H21.8183Z" fill="#F79E1B"/>
</svg>
