<svg width="57" height="43" viewBox="0 0 57 43" fill="none" xmlns="http://www.w3.org/2000/svg">
<g filter="url(#filter0_dd_0_89)">
<rect x="8.24298" y="5" width="39.9568" height="25.7414" rx="4.6104" fill="white"/>
<rect x="8.14693" y="4.90395" width="40.1489" height="25.9335" rx="4.70645" stroke="#D6DCE5" stroke-width="0.1921"/>
<path d="M31.0916 12.5846H25.2085V23.1566H31.0916V12.5846Z" fill="#FF5F00"/>
<path d="M25.5821 17.8706C25.5812 16.8524 25.8119 15.8474 26.2568 14.9316C26.7017 14.0158 27.3492 13.2132 28.1501 12.5846C27.1582 11.805 25.9671 11.3201 24.7127 11.1855C23.4583 11.0509 22.1914 11.2719 21.0567 11.8232C19.9219 12.3746 18.9652 13.2341 18.2959 14.3035C17.6266 15.3729 17.2717 16.609 17.2717 17.8706C17.2717 19.1322 17.6266 20.3683 18.2959 21.4377C18.9652 22.5071 19.9219 23.3666 21.0567 23.918C22.1914 24.4693 23.4583 24.6903 24.7127 24.5557C25.9671 24.4211 27.1582 23.9362 28.1501 23.1566C27.3492 22.528 26.7017 21.7254 26.2568 20.8096C25.8119 19.8938 25.5812 18.8888 25.5821 17.8706Z" fill="#EB001B"/>
<path d="M39.0282 17.8706C39.0282 19.1322 38.6733 20.3683 38.0041 21.4377C37.3348 22.5071 36.3781 23.3666 35.2434 23.9179C34.1087 24.4693 32.8418 24.6903 31.5874 24.5557C30.3331 24.4211 29.1419 23.9362 28.1501 23.1566C28.9503 22.5274 29.5973 21.7246 30.0421 20.809C30.4869 19.8933 30.7181 18.8886 30.7181 17.8706C30.7181 16.8526 30.4869 15.8479 30.0421 14.9322C29.5973 14.0165 28.9503 13.2138 28.1501 12.5846C29.1419 11.805 30.3331 11.3201 31.5874 11.1855C32.8418 11.0509 34.1087 11.2719 35.2434 11.8232C36.3781 12.3746 37.3348 13.2341 38.0041 14.3035C38.6733 15.3729 39.0282 16.609 39.0282 17.8706Z" fill="#F79E1B"/>
<path d="M38.3867 22.0369V21.8204H38.474V21.7763H38.2517V21.8204H38.3391V22.0369H38.3867ZM38.8183 22.0369V21.7759H38.7501L38.6718 21.9554L38.5934 21.7759H38.5252V22.0369H38.5733V21.84L38.6468 22.0097H38.6967L38.7702 21.8396V22.0369H38.8183Z" fill="#F79E1B"/>
</g>
<defs>
<filter id="filter0_dd_0_89" x="0.366903" y="0.965861" width="55.709" height="41.4936" filterUnits="userSpaceOnUse" color-interpolation-filters="sRGB">
<feFlood flood-opacity="0" result="BackgroundImageFix"/>
<feColorMatrix in="SourceAlpha" type="matrix" values="0 0 0 0 0 0 0 0 0 0 0 0 0 0 0 0 0 0 127 0" result="hardAlpha"/>
<feOffset dy="0.3842"/>
<feGaussianBlur stdDeviation="1.921"/>
<feColorMatrix type="matrix" values="0 0 0 0 0.717647 0 0 0 0 0.717647 0 0 0 0 0.717647 0 0 0 0.08 0"/>
<feBlend mode="normal" in2="BackgroundImageFix" result="effect1_dropShadow_0_89"/>
<feColorMatrix in="SourceAlpha" type="matrix" values="0 0 0 0 0 0 0 0 0 0 0 0 0 0 0 0 0 0 127 0" result="hardAlpha"/>
<feOffset dy="3.842"/>
<feGaussianBlur stdDeviation="3.842"/>
<feColorMatrix type="matrix" values="0 0 0 0 0.717647 0 0 0 0 0.717647 0 0 0 0 0.717647 0 0 0 0.08 0"/>
<feBlend mode="normal" in2="effect1_dropShadow_0_89" result="effect2_dropShadow_0_89"/>
<feBlend mode="normal" in="SourceGraphic" in2="effect2_dropShadow_0_89" result="shape"/>
</filter>
</defs>
</svg>
