<svg width="31" height="9" viewBox="0 0 31 9" fill="none" xmlns="http://www.w3.org/2000/svg">
<path fill-rule="evenodd" clip-rule="evenodd" d="M4.22667 0.125471H1.92301C1.76537 0.125471 1.6313 0.240029 1.60671 0.39558L0.674994 6.30218C0.656475 6.41876 0.746747 6.52382 0.864983 6.52382H1.96477C2.12242 6.52382 2.25649 6.40926 2.28107 6.25339L2.53237 4.66031C2.55661 4.50429 2.69101 4.38989 2.84832 4.38989H3.57758C5.09509 4.38989 5.97083 3.65562 6.19967 2.20063C6.3027 1.56409 6.20403 1.06392 5.90583 0.713541C5.57848 0.329026 4.99766 0.125471 4.22667 0.125471ZM4.49245 2.28277C4.3665 3.10932 3.7349 3.10932 3.1242 3.10932H2.77657L3.02045 1.56565C3.03493 1.47244 3.11577 1.40371 3.21009 1.40371H3.36942C3.78542 1.40371 4.17789 1.4037 4.38069 1.64077C4.50149 1.7823 4.53859 1.9924 4.49245 2.28277ZM11.1129 2.25628H10.0097C9.91572 2.25628 9.83451 2.32501 9.82001 2.41838L9.77122 2.72683L9.69406 2.61507C9.45525 2.26843 8.92276 2.15263 8.3912 2.15263C7.17206 2.15263 6.13092 3.07581 5.92812 4.37088C5.82275 5.01677 5.97255 5.63446 6.33903 6.06527C6.67526 6.46132 7.15631 6.62637 7.72855 6.62637C8.71076 6.62637 9.25557 5.99481 9.25557 5.99481L9.20631 6.3014C9.18776 6.41861 9.27801 6.52366 9.39555 6.52366H10.3893C10.5474 6.52366 10.6806 6.4091 10.7056 6.25324L11.3018 2.47792C11.3207 2.3618 11.2307 2.25628 11.1129 2.25628ZM9.57512 4.40314C9.46866 5.03329 8.96843 5.45631 8.33057 5.45631C8.01023 5.45631 7.75412 5.35359 7.58982 5.15892C7.42677 4.96565 7.36472 4.6904 7.41663 4.38397C7.51609 3.75911 8.02473 3.32238 8.65293 3.32238C8.9661 3.32238 9.22081 3.42634 9.38853 3.62273C9.55657 3.82114 9.62329 4.09796 9.57512 4.40314ZM15.8796 2.25612H16.9882C17.1435 2.25612 17.2341 2.43022 17.1458 2.55756L13.4588 7.87905C13.3991 7.96524 13.3007 8.01652 13.1956 8.01652H12.0884C11.9325 8.01652 11.8415 7.84102 11.9317 7.71336L13.0798 6.09301L11.8588 2.51002C11.8165 2.38549 11.9085 2.25612 12.041 2.25612H13.1303C13.2719 2.25612 13.3967 2.34902 13.4376 2.48446L14.0856 4.64847L15.6146 2.39656C15.6745 2.30865 15.7739 2.25612 15.8796 2.25612Z" fill="#253B80"/>
<path fill-rule="evenodd" clip-rule="evenodd" d="M27.8994 6.30165L28.8449 0.287042C28.8594 0.19368 28.9403 0.124946 29.0343 0.124634H30.0986C30.2162 0.124634 30.3064 0.229997 30.2879 0.346582L29.3555 6.25287C29.3312 6.40873 29.1972 6.52329 29.0392 6.52329H28.0887C27.9711 6.52329 27.8809 6.41824 27.8994 6.30165ZM20.6589 0.124943H18.3548C18.1975 0.124943 18.0635 0.239503 18.0388 0.395054L17.1071 6.30165C17.0886 6.41824 17.1789 6.52329 17.2965 6.52329H18.4787C18.5886 6.52329 18.6826 6.44317 18.6998 6.33407L18.9642 4.65979C18.9885 4.50377 19.1228 4.38937 19.2801 4.38937H20.009C21.5268 4.38937 22.4024 3.65509 22.6314 2.20011C22.7348 1.56356 22.6355 1.0634 22.3374 0.713016C22.0102 0.328501 21.4299 0.124943 20.6589 0.124943ZM20.9247 2.28225C20.799 3.10879 20.1674 3.10879 19.5564 3.10879H19.209L19.4533 1.56512C19.4678 1.47192 19.5479 1.40318 19.6426 1.40318H19.8019C20.2176 1.40318 20.6104 1.40318 20.8131 1.64025C20.934 1.78177 20.9708 1.99188 20.9247 2.28225ZM27.5445 2.25575H26.4421C26.3473 2.25575 26.2669 2.32449 26.2527 2.41785L26.2039 2.72631L26.1264 2.61455C25.8876 2.26791 25.3555 2.1521 24.8239 2.1521C23.6047 2.1521 22.5639 3.07528 22.3611 4.37035C22.2561 5.01625 22.4052 5.63393 22.7717 6.06474C23.1086 6.46079 23.589 6.62585 24.1612 6.62585C25.1435 6.62585 25.6881 5.99429 25.6881 5.99429L25.639 6.30087C25.6205 6.41808 25.7107 6.52313 25.829 6.52313H26.8223C26.9796 6.52313 27.1136 6.40857 27.1383 6.25271L27.7348 2.47739C27.7531 2.36127 27.6628 2.25575 27.5445 2.25575ZM26.0069 4.40261C25.901 5.03277 25.4002 5.45578 24.7622 5.45578C24.4425 5.45578 24.1859 5.35307 24.0214 5.1584C23.8584 4.96513 23.7971 4.68987 23.8484 4.38344C23.9483 3.75859 24.4563 3.32186 25.0845 3.32186C25.3979 3.32186 25.6524 3.42582 25.8203 3.62221C25.989 3.82062 26.0557 4.09743 26.0069 4.40261Z" fill="#179BD7"/>
</svg>
