<svg width="12" height="10" viewBox="0 0 12 10" fill="none" xmlns="http://www.w3.org/2000/svg">
<path d="M11.2071 1.5669C10.7881 1.75314 10.3458 1.86953 9.88023 1.93937C10.3458 1.66002 10.7183 1.21772 10.8812 0.682301C10.4389 0.93837 9.95006 1.1246 9.41465 1.241C8.99562 0.798696 8.39037 0.519348 7.73856 0.519348C6.48149 0.519348 5.45721 1.54362 5.45721 2.80069C5.45721 2.98692 5.48049 3.14988 5.52705 3.31283C3.64145 3.21971 1.94208 2.31183 0.801411 0.915091C0.615178 1.26428 0.498783 1.63674 0.498783 2.05576C0.498783 2.84725 0.894527 3.54562 1.52306 3.96464C1.1506 3.94136 0.801411 3.84825 0.475504 3.68529V3.70857C0.475504 4.82597 1.26699 5.75713 2.31455 5.96664C2.12831 6.0132 1.9188 6.03647 1.70929 6.03647C1.56962 6.03647 1.40666 6.0132 1.26699 5.98992C1.56962 6.8978 2.40766 7.57289 3.40866 7.57289C2.61717 8.17814 1.63945 8.55061 0.56862 8.55061C0.382388 8.55061 0.196156 8.55061 0.0332031 8.52733C1.05748 9.17914 2.24471 9.55161 3.54833 9.55161C7.76184 9.55161 10.0665 6.05975 10.0665 3.03348C10.0665 2.94037 10.0665 2.82397 10.0665 2.73085C10.5088 2.42823 10.9045 2.03248 11.2071 1.5669Z" fill="black"/>
</svg>
