<svg width="28" height="29" viewBox="0 0 28 29" fill="none" xmlns="http://www.w3.org/2000/svg">
<circle cx="14" cy="14.5838" r="14" fill="white"/>
<circle cx="14" cy="14.5838" r="13.5" stroke="black" stroke-opacity="0.2"/>
<path d="M20.2071 11.5669C19.7881 11.7531 19.3458 11.8695 18.8802 11.9394C19.3458 11.66 19.7183 11.2177 19.8812 10.6823C19.4389 10.9384 18.9501 11.1246 18.4146 11.241C17.9956 10.7987 17.3904 10.5193 16.7386 10.5193C15.4815 10.5193 14.4572 11.5436 14.4572 12.8007C14.4572 12.9869 14.4805 13.1499 14.5271 13.3128C12.6415 13.2197 10.9421 12.3118 9.80141 10.9151C9.61518 11.2643 9.49878 11.6367 9.49878 12.0558C9.49878 12.8472 9.89453 13.5456 10.5231 13.9646C10.1506 13.9414 9.80141 13.8482 9.4755 13.6853V13.7086C9.4755 14.826 10.267 15.7571 11.3145 15.9666C11.1283 16.0132 10.9188 16.0365 10.7093 16.0365C10.5696 16.0365 10.4067 16.0132 10.267 15.9899C10.5696 16.8978 11.4077 17.5729 12.4087 17.5729C11.6172 18.1781 10.6395 18.5506 9.56862 18.5506C9.38239 18.5506 9.19616 18.5506 9.0332 18.5273C10.0575 19.1791 11.2447 19.5516 12.5483 19.5516C16.7618 19.5516 19.0665 16.0598 19.0665 13.0335C19.0665 12.9404 19.0665 12.824 19.0665 12.7309C19.5088 12.4282 19.9045 12.0325 20.2071 11.5669Z" fill="black"/>
</svg>
