<svg width="29" height="10" viewBox="0 0 29 10" fill="none" xmlns="http://www.w3.org/2000/svg">
<path d="M14.7341 0.675491L12.8704 9.38748H10.6168L12.4808 0.675491H14.7341ZM24.216 6.30085L25.4025 3.0292L26.0852 6.30085H24.216ZM26.7304 9.38748H28.815L26.996 0.675491H25.0719C24.6395 0.675491 24.2747 0.926965 24.1123 1.31465L20.7312 9.38748H23.0978L23.5677 8.08654H26.4591L26.7304 9.38748ZM20.8486 6.54295C20.8583 4.24356 17.6688 4.11699 17.6909 3.08986C17.6975 2.7769 17.9956 2.44491 18.6466 2.35971C18.97 2.31752 19.8593 2.28526 20.869 2.74988L21.2644 0.902424C20.7221 0.705546 20.0242 0.516113 19.1561 0.516113C16.9287 0.516113 15.3609 1.70041 15.3476 3.39621C15.3336 4.65027 16.4669 5.3501 17.3208 5.76702C18.1988 6.19414 18.4938 6.46767 18.49 6.84957C18.4842 7.43441 17.7896 7.69195 17.1416 7.70216C16.0083 7.72008 15.3507 7.39636 14.8265 7.15206L14.4181 9.061C14.9445 9.30282 15.9165 9.51294 16.9249 9.52369C19.2921 9.52369 20.8409 8.354 20.8486 6.54295ZM11.5138 0.675491L7.86243 9.38748H5.47977L3.68306 2.43471C3.57386 2.00648 3.47901 1.84986 3.14729 1.66926C2.60602 1.37559 1.71125 1.09958 0.924011 0.928619L0.97778 0.675491H4.81248C5.30109 0.675491 5.7409 1.00086 5.85174 1.56365L6.80084 6.60527L9.146 0.675491H11.5138Z" fill="#1434CB"/>
</svg>
